<mxfile host="Electron" modified="2023-10-07T16:11:10.931Z" agent="Mozilla/5.0 (Windows NT 10.0; Win64; x64) AppleWebKit/537.36 (KHTML, like Gecko) draw.io/21.7.5 Chrome/114.0.5735.289 Electron/25.8.1 Safari/537.36" etag="fjT4C10Sck46yNu7xv4L" version="21.7.5" type="device">
  <diagram name="Page-1" id="lQ_tDAuH06vYtCXF61Ut">
    <mxGraphModel dx="1290" dy="621" grid="1" gridSize="10" guides="1" tooltips="1" connect="1" arrows="1" fold="1" page="1" pageScale="1" pageWidth="850" pageHeight="1100" background="none" math="0" shadow="1">
      <root>
        <mxCell id="0" />
        <mxCell id="1" parent="0" />
        <mxCell id="ZBL8MKOtX9Lc5O_O7u3m-3" value="" style="edgeStyle=orthogonalEdgeStyle;rounded=0;orthogonalLoop=1;jettySize=auto;html=1;entryX=0;entryY=0.5;entryDx=0;entryDy=0;fontSize=19;" edge="1" parent="1" source="ZBL8MKOtX9Lc5O_O7u3m-1" target="ZBL8MKOtX9Lc5O_O7u3m-2">
          <mxGeometry relative="1" as="geometry" />
        </mxCell>
        <mxCell id="ZBL8MKOtX9Lc5O_O7u3m-1" value="应用层协议" style="rounded=0;whiteSpace=wrap;html=1;fillColor=#e1d5e7;strokeColor=#9673a6;fontSize=19;" vertex="1" parent="1">
          <mxGeometry x="90" y="280" width="120" height="60" as="geometry" />
        </mxCell>
        <mxCell id="ZBL8MKOtX9Lc5O_O7u3m-5" value="" style="edgeStyle=orthogonalEdgeStyle;rounded=0;orthogonalLoop=1;jettySize=auto;html=1;exitX=1;exitY=0.5;exitDx=0;exitDy=0;entryX=0;entryY=0.5;entryDx=0;entryDy=0;fontSize=19;" edge="1" parent="1" source="ZBL8MKOtX9Lc5O_O7u3m-1" target="ZBL8MKOtX9Lc5O_O7u3m-4">
          <mxGeometry relative="1" as="geometry" />
        </mxCell>
        <mxCell id="ZBL8MKOtX9Lc5O_O7u3m-18" style="edgeStyle=orthogonalEdgeStyle;rounded=0;orthogonalLoop=1;jettySize=auto;html=1;exitX=1;exitY=0.5;exitDx=0;exitDy=0;entryX=0;entryY=0.5;entryDx=0;entryDy=0;fontSize=19;" edge="1" parent="1" source="ZBL8MKOtX9Lc5O_O7u3m-2" target="ZBL8MKOtX9Lc5O_O7u3m-6">
          <mxGeometry relative="1" as="geometry" />
        </mxCell>
        <mxCell id="ZBL8MKOtX9Lc5O_O7u3m-19" style="edgeStyle=orthogonalEdgeStyle;rounded=0;orthogonalLoop=1;jettySize=auto;html=1;exitX=1;exitY=0.5;exitDx=0;exitDy=0;fontSize=19;" edge="1" parent="1" source="ZBL8MKOtX9Lc5O_O7u3m-2" target="ZBL8MKOtX9Lc5O_O7u3m-7">
          <mxGeometry relative="1" as="geometry" />
        </mxCell>
        <mxCell id="ZBL8MKOtX9Lc5O_O7u3m-20" style="edgeStyle=orthogonalEdgeStyle;rounded=0;orthogonalLoop=1;jettySize=auto;html=1;exitX=1;exitY=0.5;exitDx=0;exitDy=0;fontSize=19;" edge="1" parent="1" source="ZBL8MKOtX9Lc5O_O7u3m-2" target="ZBL8MKOtX9Lc5O_O7u3m-8">
          <mxGeometry relative="1" as="geometry" />
        </mxCell>
        <mxCell id="ZBL8MKOtX9Lc5O_O7u3m-21" style="edgeStyle=orthogonalEdgeStyle;rounded=0;orthogonalLoop=1;jettySize=auto;html=1;exitX=1;exitY=0.5;exitDx=0;exitDy=0;entryX=0;entryY=0.5;entryDx=0;entryDy=0;fontSize=19;" edge="1" parent="1" source="ZBL8MKOtX9Lc5O_O7u3m-2" target="ZBL8MKOtX9Lc5O_O7u3m-9">
          <mxGeometry relative="1" as="geometry" />
        </mxCell>
        <mxCell id="ZBL8MKOtX9Lc5O_O7u3m-2" value="C/S模型" style="whiteSpace=wrap;html=1;rounded=0;fillColor=#fff2cc;strokeColor=#d6b656;fontSize=19;" vertex="1" parent="1">
          <mxGeometry x="270" y="220" width="120" height="60" as="geometry" />
        </mxCell>
        <mxCell id="ZBL8MKOtX9Lc5O_O7u3m-4" value="P2P模型" style="whiteSpace=wrap;html=1;rounded=0;fontSize=19;" vertex="1" parent="1">
          <mxGeometry x="270" y="310" width="120" height="60" as="geometry" />
        </mxCell>
        <mxCell id="ZBL8MKOtX9Lc5O_O7u3m-6" value="DNS 53" style="whiteSpace=wrap;html=1;rounded=0;fillColor=#dae8fc;strokeColor=#6c8ebf;fontSize=19;" vertex="1" parent="1">
          <mxGeometry x="510" y="130" width="120" height="60" as="geometry" />
        </mxCell>
        <mxCell id="ZBL8MKOtX9Lc5O_O7u3m-7" value="HTTP 80" style="whiteSpace=wrap;html=1;rounded=0;fillColor=#d5e8d4;strokeColor=#82b366;fontSize=19;gradientColor=none;glass=0;shadow=0;" vertex="1" parent="1">
          <mxGeometry x="510" y="190" width="120" height="60" as="geometry" />
        </mxCell>
        <mxCell id="ZBL8MKOtX9Lc5O_O7u3m-8" value="FTP" style="whiteSpace=wrap;html=1;rounded=0;fillColor=#d5e8d4;strokeColor=#82b366;fontSize=19;" vertex="1" parent="1">
          <mxGeometry x="510" y="250" width="120" height="60" as="geometry" />
        </mxCell>
        <mxCell id="ZBL8MKOtX9Lc5O_O7u3m-9" value="Email" style="whiteSpace=wrap;html=1;rounded=0;fillColor=#d5e8d4;strokeColor=#82b366;fontSize=19;" vertex="1" parent="1">
          <mxGeometry x="510" y="310" width="120" height="60" as="geometry" />
        </mxCell>
        <mxCell id="ZBL8MKOtX9Lc5O_O7u3m-10" value="UDP" style="whiteSpace=wrap;html=1;rounded=0;fillColor=#dae8fc;strokeColor=#6c8ebf;fontSize=19;" vertex="1" parent="1">
          <mxGeometry x="680" y="135" width="120" height="60" as="geometry" />
        </mxCell>
        <mxCell id="ZBL8MKOtX9Lc5O_O7u3m-12" value="TCP" style="whiteSpace=wrap;html=1;rounded=0;fillColor=#d5e8d4;strokeColor=#82b366;fontSize=19;" vertex="1" parent="1">
          <mxGeometry x="680" y="250" width="120" height="60" as="geometry" />
        </mxCell>
        <mxCell id="ZBL8MKOtX9Lc5O_O7u3m-22" value="" style="shape=curlyBracket;whiteSpace=wrap;html=1;rounded=1;flipH=1;labelPosition=right;verticalLabelPosition=middle;align=left;verticalAlign=middle;" vertex="1" parent="1">
          <mxGeometry x="630" y="210" width="50" height="140" as="geometry" />
        </mxCell>
        <mxCell id="ZBL8MKOtX9Lc5O_O7u3m-23" value="" style="shape=curlyBracket;whiteSpace=wrap;html=1;rounded=1;flipH=1;labelPosition=right;verticalLabelPosition=middle;align=left;verticalAlign=middle;size=0.5;" vertex="1" parent="1">
          <mxGeometry x="630" y="140" width="50" height="50" as="geometry" />
        </mxCell>
      </root>
    </mxGraphModel>
  </diagram>
</mxfile>
